 <svg
          class="w-full h-24"
          xmlns="http://www.w3.org/2000/svg"
          fill="none"
          viewBox="0 0 135 44"
        >
          <g clip-path="url(#a)">
            <path
              fill="#0270BD"
              d="M-.001 28.477 9.875 1.105H14.759L24.64 28.477H19.604L17.397 22.152H7.184L4.976 28.477H-.001ZM8.605 18.11H16.01L12.869 9.288C12.63 8.604 12.442 7.903 12.307 7.191 12.153 7.9 11.957 8.601 11.721 9.288L8.605 18.11ZM27.736 9.981V7.738C27.736 2.723 30.393.626 34.393.626 35.182.615 35.97.678 36.748.812V4.722H35.165C32.845 4.722 32.283 5.92 32.283 7.753V9.996H36.904L38.506 13.818H32.259V28.482H27.736V13.818H25.079V9.981H27.736Z"
            />
            <path
              fill="#012063"
              d="M49.3685 16.4092L44.3524 29.8898L39.6049 16.4092H34.7793L42.2229 35.6818L41.7002 37.0651C40.9139 39.2401 39.7905 39.6507 37.9931 39.6507H35.5998L37.2019 43.7907C37.6884 43.8458 38.1775 43.8752 38.6671 43.8787C41.7002 43.8787 43.6442 42.4563 45.0166 38.9909L54.072 16.375L49.3685 16.4092Z"
            />
            <path
              fill="#01CDFF"
              d="M62.8102 15.8477C57.7989 15.8477 54.507 18.4675 54.507 22.4755H58.4143C58.4143 20.5204 59.9089 19.406 62.605 19.406C64.925 19.406 66.4196 20.4178 66.4196 22.9252V23.3358L60.8858 23.7463C56.49 24.0836 54.0479 26.2196 54.0479 29.6117C54.0479 33.0918 56.4411 35.3793 60.368 35.3793C63.2497 35.3793 65.7407 34.0694 66.5417 32.1583L66.8787 34.8905H70.8838V23.6486C70.8545 18.5457 67.7872 15.8477 62.8102 15.8477ZM66.4245 27.4171C66.4245 30.2618 64.6271 31.9481 61.8235 31.9481C59.7673 31.9481 58.6439 31.122 58.6439 29.4406C58.6439 27.9401 59.7282 26.9967 62.5513 26.7426L66.4245 26.4444V27.4171Z"
            />
            <path
              fill="#0270BD"
              d="M84.931 15.848C82.425 15.848 80.178 16.933 79.021 18.78L78.645 16.385H74.415V34.905H78.982V24.929C78.982 21.938 80.701 19.988 83.51 19.988 85.864 19.988 87.417 21.488 87.417 24.597V34.905H91.984V23.526C91.964 18.732 89.571 15.848 84.931 15.848ZM109.293 18.955C108.209 16.971 106.04 15.813 103.271 15.813 97.996 15.813 94.48 19.855 94.48 25.246 94.48 30.637 97.923 34.533 103.159 34.533 105.816 34.533 108.097 33.448 109.259 31.727V34.797C109.259 37.866 107.237 39.851 104.097 39.851 101.288 39.851 99.457 38.428 99.159 36.033H94.592C95.154 40.97 98.783 43.991 104.097 43.991 110.08 43.991 113.801 40.144 113.801 33.971V16.409H109.572L109.293 18.955ZM104.057 30.564C101.063 30.564 99.08 28.242 99.08 25.134 99.08 22.103 101.034 19.816 104.057 19.816 107.237 19.816 109.147 21.991 109.147 25.134 109.147 28.35 107.198 30.564 104.057 30.564ZM130.109 16.41V26.108C130.109 29.627 128.722 31.313 125.84 31.313 123.296 31.313 121.933 29.891 121.933 26.372V16.41H117.371V27.98C117.371 32.511 119.877 35.394 124.141 35.394 126.612 35.394 129.025 34.192 130.129 32.462L130.461 34.906H134.691V16.41H130.109Z"
            />
            <path
              fill="#01CDFF"
              d="M129.548 12.4398V8.72509L131.268 6.98992H134.999V5.38672H130.55L128.024 7.96748V12.4398H129.548Z"
            />
            <path
              fill="#012063"
              d="M128.029 0V3.71962L126.315 5.45479H122.578V7.05799H127.028L129.558 4.47234V0H128.029Z"
            />
          </g>
          <defs>
            <clipPath id="a">
              <path fill="#fff" d="M0 0H135V44H0z" transform="translate(-.001)" />
            </clipPath>
          </defs>
        </svg>